<?xml version="1.0" encoding="utf-8"?>
<!-- Generator: Adobe Illustrator 27.6.1, SVG Export Plug-In . SVG Version: 6.00 Build 0)  -->
<svg version="1.1" id="katman_1" xmlns="http://www.w3.org/2000/svg" xmlns:xlink="http://www.w3.org/1999/xlink" x="0px" y="0px"
	 viewBox="0 0 362 282" style="enable-background:new 0 0 362 282;" xml:space="preserve">
<style type="text/css">
	.st0{clip-path:url(#SVGID_00000104683151312687082550000014302206833036215969_);}
	.st1{fill:#64B5F6;}
	.st2{fill:#EAF9FF;}
	.st3{fill-rule:evenodd;clip-rule:evenodd;fill:#F2C94C;}
	.st4{fill:#F2C94C;}
	.st5{font-family:'BritannicBold';}
	.st6{font-size:46.4954px;}
	.st7{fill:#FFFFFF;}
	.st8{font-family:'FranklinGothic-DemiCond';}
	.st9{font-size:21.2321px;}
</style>
<g>
	<defs>
		<rect id="SVGID_1_" width="362" height="282"/>
	</defs>
	<clipPath id="SVGID_00000011012287850031741280000012691365625387307689_">
		<use xlink:href="#SVGID_1_"  style="overflow:visible;"/>
	</clipPath>
	<g style="clip-path:url(#SVGID_00000011012287850031741280000012691365625387307689_);">
		<path class="st1" d="M46.8,96.7v52.7H35v-21.6H11.9v21.6H0.1V70.9h11.8v46.6H35V96.7H46.8z"/>
		<path class="st1" d="M96.1,138.1H72.4l-4.5,11.3H55.8l22.7-52.7h11.7l22.8,52.7h-12.4L96.1,138.1z M96.1,138.1l-11.8-29.4
			l-11.9,29.4H96.1z"/>
		<path class="st1" d="M145.6,150.3c-5.2,0-9.9-1.2-14.1-3.5c-4.2-2.4-7.5-5.6-9.9-9.7c-2.4-4.2-3.6-8.9-3.6-14.1
			c0-5.2,1.2-9.9,3.6-14c2.4-4.2,5.7-7.4,9.9-9.7c4.2-2.4,9-3.5,14.2-3.5c4.4,0,8.4,0.8,11.9,2.4c3.6,1.6,6.6,3.9,9,6.9l-7.6,7.2
			c-3.4-4.1-7.7-6.2-12.8-6.2c-3.2,0-6,0.7-8.4,2.2c-2.5,1.4-4.4,3.4-5.8,5.9c-1.4,2.6-2,5.5-2,8.7c0,3.3,0.7,6.2,2,8.7
			c1.4,2.6,3.3,4.6,5.8,6c2.5,1.4,5.3,2.1,8.4,2.1c5.1,0,9.4-2.1,12.8-6.2l7.6,7.2c-2.4,3.1-5.4,5.4-9,7
			C154,149.5,150,150.3,145.6,150.3z"/>
		<path class="st1" d="M181.8,124.8l20.3-26.5l15.4-0.3l-21.1,25.6l22.4,27H205L181.8,124.8z"/>
		<path class="st1" d="M251.5,150.3c-4,0-7.9-0.6-11.7-1.7c-3.7-1.2-6.7-2.6-9-4.4l4-9.2c2.2,1.7,4.8,3,7.8,4c3,1,6,1.5,9,1.5
			c3.4,0,5.8-0.5,7.4-1.5c1.6-1.1,2.4-2.4,2.4-4.1c0-1.3-0.5-2.3-1.5-3.1c-0.9-0.9-2.1-1.5-3.6-2c-1.5-0.5-3.4-1.1-6-1.7
			c-3.9-1-7.1-1.9-9.5-2.9c-2.5-1-4.6-2.5-6.4-4.6c-1.7-2.1-2.6-4.9-2.6-8.4c0-3.1,0.8-5.8,2.4-8.3c1.6-2.5,4-4.5,7.2-5.9
			c3.3-1.5,7.2-2.2,11.9-2.2c3.3,0,6.4,0.4,9.5,1.2c3.1,0.8,5.8,2,8.2,3.5l-3.6,9.3c-4.7-2.8-9.4-4.1-14.1-4.1
			c-3.3,0-5.8,0.6-7.4,1.7c-1.6,1.1-2.3,2.6-2.3,4.4c0,1.8,0.9,3.2,2.7,4.1c1.8,0.9,4.6,1.7,8.4,2.6c3.9,1,7.1,1.9,9.5,2.9
			c2.5,1,4.6,2.5,6.3,4.5c1.8,2.1,2.7,4.8,2.7,8.4c0,3-0.8,5.8-2.5,8.3c-1.6,2.5-4,4.4-7.3,5.9C260.1,149.6,256.1,150.3,251.5,150.3
			z"/>
		<path class="st2" d="M22.1,0c4.5,0,8.4,0.8,11.7,2.3c3.3,1.6,5.9,3.8,7.7,6.6c1.8,2.9,2.7,6.2,2.7,10.2c0,3.9-0.9,7.2-2.7,10.2
			c-1.8,2.9-4.4,5.1-7.7,6.6c-3.3,1.5-7.2,2.3-11.7,2.3H11.9V72H0.1V0H22.1z M21.5,28.2c3.5,0,6.2-0.8,8.1-2.3
			c1.8-1.6,2.8-3.9,2.8-6.8c0-3-0.9-5.2-2.8-6.8c-1.8-1.6-4.5-2.4-8.1-2.4h-9.6v18.3H21.5z"/>
		<path class="st2" d="M103.1,0v52.7H91.3V31.1H68.1v21.6H56.3V0h11.8v20.8h23.2V0H103.1z"/>
		<path class="st2" d="M152.3,41.4h-23.7l-4.5,11.3h-12.1L134.8,0h11.7l22.8,52.7h-12.4L152.3,41.4z M152.3,41.4L140.5,12
			l-11.9,29.4H152.3z"/>
		<path class="st2" d="M210.6,52.7L200.8,38h-0.6H190v14.7h-11.8V0h22.1c4.5,0,8.4,0.8,11.7,2.3c3.3,1.6,5.9,3.8,7.7,6.6
			c1.8,2.9,2.7,6.2,2.7,10.2c0,3.9-0.9,7.3-2.8,10.2c-1.8,2.8-4.4,5-7.7,6.5l11.4,16.9H210.6z M210.4,19.1c0-3-0.9-5.2-2.8-6.8
			c-1.8-1.6-4.5-2.4-8.1-2.4H190v18.4h9.6c3.5,0,6.2-0.8,8.1-2.4C209.5,24.3,210.4,22,210.4,19.1z"/>
		<path class="st2" d="M281.7,52.7l-0.1-31.6l-15,26h-5.3l-14.9-25.4v30.9h-11.1V0h9.8l19.1,32.7L283,0h9.7l0.1,52.7H281.7z"/>
		<path class="st2" d="M342.1,41.4h-23.7l-4.5,11.3h-12.1L324.6,0h11.7L359,52.7h-12.4L342.1,41.4z M342.1,41.4L330.3,12l-11.9,29.4
			H342.1z"/>
		<path class="st3" d="M334.6,84.7c0.3,0,0.5,0.3,0.5,0.7c0,0.4-0.2,0.7-0.5,0.7c-0.3,0-0.5-0.3-0.5-0.7
			C334,85,334.3,84.7,334.6,84.7z M330.8,94.4c0.1-1,0.8-2.7,1.1-3.4c-0.3-0.7-0.8-1.4-1.3-1.4c0.2-0.7,1.1-1.6,1-2.2
			c-0.2-0.6-0.6-0.5-1.5-1.1c0.3-0.8,1-1.3,1.5-1.3c0.6-0.1,0.5-1.1,1.4-1.7c0.9-0.6,1.7-0.8,3-0.7c1.3,0.2,5.5,1.5,4.4,7.6
			c2.4,6.1,10.9-2,13.8-2c-0.5,1.4-1.3,2.7-1.9,4.1c0.8,0.7,1.9,0,2.7,0c-0.8,3.4-2.5,4.8-3.8,6.1c1.3,5.4,6.3,3.3,10.8,2.7
			c-0.5,1.8-2.4,2-3.2,3.4c1.5,2,3.2,4.8,4.3,7.5c-2-1.6-6.2-3.4-7.5-4.1c-2.7-1.4-8.2-1.4-10.9,0c0.5,1.4,1.6,2,2.5,2.7
			c-1.4,3.4-4.1,1.4-5.7,0.7c-1.4,1.3-3.9,1.5-4.6,0.7c0,0,0-0.8,0.8-1.6c0.5-1-1.6-1.2-2.2-2.5c0-1.3,1.1,0,1.7-1.4
			C335.6,103.3,330,102.6,330.8,94.4z"/>
		<text transform="matrix(1.1479 0 0 1 330.0059 153.9102)" class="st4 st5 st6">4</text>
		<text transform="matrix(1.0093 -4.456521e-02 4.411000e-02 0.999 301.281 113.2842)" class="st4 st5 st6">2</text>
		<text transform="matrix(1.103 0 0 1 298 153.1201)" class="st4 st5 st6">2</text>
	</g>
</g>
<text transform="matrix(1.1019 0 0 1 0 210.8623)" class="st7 st8 st9">Canada’s biggest pharma hackathon</text>
</svg>
