<svg width="362" height="257" viewBox="0 0 362 257" fill="none" xmlns="http://www.w3.org/2000/svg">
<path d="M7.18321 189.17C5.76988 189.17 4.54735 188.866 3.51561 188.258C2.48388 187.636 1.68535 186.753 1.12001 185.608C0.568813 184.449 0.293213 183.085 0.293213 181.516C0.293213 179.962 0.568813 178.612 1.12001 177.467C1.68535 176.308 2.48388 175.425 3.51561 174.817C4.54735 174.195 5.76988 173.884 7.18321 173.884C8.13015 173.884 9.02055 174.04 9.85441 174.351C10.7024 174.648 11.4373 175.079 12.0592 175.644C12.2853 175.856 12.3984 176.103 12.3984 176.386C12.3984 176.584 12.3419 176.761 12.2288 176.916C12.1157 177.057 11.9815 177.128 11.826 177.128C11.6564 177.128 11.4515 177.05 11.2112 176.895C10.4904 176.329 9.83321 175.934 9.23961 175.708C8.66015 175.481 7.98881 175.368 7.22561 175.368C5.58615 175.368 4.32121 175.905 3.43081 176.98C2.55455 178.04 2.11641 179.552 2.11641 181.516C2.11641 183.495 2.55455 185.021 3.43081 186.096C4.32121 187.156 5.58615 187.686 7.22561 187.686C7.97468 187.686 8.64601 187.573 9.23961 187.346C9.83321 187.12 10.4904 186.725 11.2112 186.159C11.4515 186.004 11.6564 185.926 11.826 185.926C11.9815 185.926 12.1157 185.997 12.2288 186.138C12.3419 186.279 12.3984 186.456 12.3984 186.668C12.3984 186.951 12.2853 187.198 12.0592 187.41C11.4373 187.975 10.7024 188.413 9.85441 188.724C9.02055 189.021 8.13015 189.17 7.18321 189.17Z" fill="#EEEEEE"/>
<path d="M19.585 178.421C22.1714 178.421 23.4646 179.778 23.4646 182.492V188.258C23.4646 188.512 23.3869 188.717 23.2314 188.873C23.0901 189.028 22.8922 189.106 22.6378 189.106C22.3834 189.106 22.1785 189.028 22.023 188.873C21.8676 188.717 21.7898 188.512 21.7898 188.258V187.24C21.5213 187.848 21.1114 188.322 20.5602 188.661C20.009 188.986 19.373 189.148 18.6522 189.148C17.988 189.148 17.3732 189.014 16.8078 188.746C16.2566 188.477 15.8185 188.103 15.4934 187.622C15.1684 187.141 15.0058 186.611 15.0058 186.032C15.0058 185.255 15.2037 184.654 15.5994 184.23C15.9952 183.792 16.6453 183.481 17.5498 183.297C18.4544 183.099 19.7122 183 21.3234 183H21.7898V182.301C21.7898 181.453 21.6132 180.831 21.2598 180.435C20.9206 180.039 20.3624 179.842 19.585 179.842C18.624 179.842 17.6488 180.103 16.6594 180.626C16.2778 180.866 16.0093 180.986 15.8538 180.986C15.6842 180.986 15.5429 180.923 15.4298 180.796C15.3168 180.668 15.2602 180.506 15.2602 180.308C15.2602 180.11 15.3168 179.941 15.4298 179.799C15.557 179.644 15.7549 179.488 16.0234 179.333C16.5181 179.05 17.0764 178.831 17.6982 178.676C18.3342 178.506 18.9632 178.421 19.585 178.421ZM18.8854 187.792C19.7334 187.792 20.426 187.509 20.963 186.944C21.5142 186.364 21.7898 185.622 21.7898 184.718V184.103H21.4082C20.1645 184.103 19.2176 184.159 18.5674 184.272C17.9173 184.371 17.4509 184.548 17.1682 184.802C16.8997 185.043 16.7654 185.403 16.7654 185.884C16.7654 186.435 16.9633 186.894 17.359 187.262C17.7689 187.615 18.2777 187.792 18.8854 187.792Z" fill="#EEEEEE"/>
<path d="M32.438 178.421C34.9114 178.421 36.148 179.785 36.148 182.513V188.258C36.148 188.527 36.0703 188.739 35.9148 188.894C35.7735 189.035 35.5686 189.106 35.3 189.106C35.0315 189.106 34.8195 189.035 34.664 188.894C34.5086 188.739 34.4308 188.527 34.4308 188.258V182.619C34.4308 181.658 34.24 180.958 33.8584 180.52C33.491 180.082 32.8974 179.863 32.0776 179.863C31.1307 179.863 30.3746 180.153 29.8092 180.732C29.2439 181.311 28.9612 182.096 28.9612 183.085V188.258C28.9612 188.527 28.8835 188.739 28.728 188.894C28.5867 189.035 28.3818 189.106 28.1132 189.106C27.8447 189.106 27.6327 189.035 27.4772 188.894C27.3218 188.739 27.244 188.527 27.244 188.258V179.312C27.244 179.057 27.3218 178.852 27.4772 178.697C27.6327 178.541 27.8447 178.464 28.1132 178.464C28.3676 178.464 28.5655 178.541 28.7068 178.697C28.8623 178.852 28.94 179.05 28.94 179.29V180.372C29.2792 179.736 29.7527 179.255 30.3604 178.93C30.9682 178.591 31.6607 178.421 32.438 178.421Z" fill="#EEEEEE"/>
<path d="M44.1481 178.421C46.7345 178.421 48.0277 179.778 48.0277 182.492V188.258C48.0277 188.512 47.9499 188.717 47.7945 188.873C47.6531 189.028 47.4553 189.106 47.2009 189.106C46.9465 189.106 46.7415 189.028 46.5861 188.873C46.4306 188.717 46.3529 188.512 46.3529 188.258V187.24C46.0843 187.848 45.6745 188.322 45.1233 188.661C44.5721 188.986 43.9361 189.148 43.2153 189.148C42.551 189.148 41.9362 189.014 41.3709 188.746C40.8197 188.477 40.3815 188.103 40.0565 187.622C39.7314 187.141 39.5689 186.611 39.5689 186.032C39.5689 185.255 39.7667 184.654 40.1625 184.23C40.5582 183.792 41.2083 183.481 42.1129 183.297C43.0174 183.099 44.2753 183 45.8865 183H46.3529V182.301C46.3529 181.453 46.1762 180.831 45.8229 180.435C45.4837 180.039 44.9254 179.842 44.1481 179.842C43.187 179.842 42.2118 180.103 41.2225 180.626C40.8409 180.866 40.5723 180.986 40.4169 180.986C40.2473 180.986 40.1059 180.923 39.9929 180.796C39.8798 180.668 39.8233 180.506 39.8233 180.308C39.8233 180.11 39.8798 179.941 39.9929 179.799C40.1201 179.644 40.3179 179.488 40.5865 179.333C41.0811 179.05 41.6394 178.831 42.2613 178.676C42.8973 178.506 43.5262 178.421 44.1481 178.421ZM43.4485 187.792C44.2965 187.792 44.989 187.509 45.5261 186.944C46.0773 186.364 46.3529 185.622 46.3529 184.718V184.103H45.9713C44.7275 184.103 43.7806 184.159 43.1305 184.272C42.4803 184.371 42.0139 184.548 41.7313 184.802C41.4627 185.043 41.3285 185.403 41.3285 185.884C41.3285 186.435 41.5263 186.894 41.9221 187.262C42.3319 187.615 42.8407 187.792 43.4485 187.792Z" fill="#EEEEEE"/>
<path d="M60.0963 173.948C60.3648 173.948 60.5768 174.026 60.7323 174.181C60.8877 174.337 60.9655 174.535 60.9655 174.775V188.258C60.9655 188.512 60.8877 188.717 60.7323 188.873C60.5768 189.028 60.3648 189.106 60.0963 189.106C59.8277 189.106 59.6157 189.028 59.4603 188.873C59.3189 188.717 59.2483 188.512 59.2483 188.258V187.113C58.9373 187.763 58.478 188.265 57.8703 188.618C57.2767 188.972 56.5771 189.148 55.7715 189.148C54.8669 189.148 54.0684 188.922 53.3759 188.47C52.6833 188.018 52.1463 187.389 51.7647 186.583C51.3831 185.763 51.1923 184.817 51.1923 183.742C51.1923 182.682 51.3831 181.75 51.7647 180.944C52.1463 180.138 52.6833 179.517 53.3759 179.078C54.0684 178.64 54.8669 178.421 55.7715 178.421C56.5771 178.421 57.2767 178.598 57.8703 178.951C58.478 179.305 58.9373 179.806 59.2483 180.456V174.775C59.2483 174.52 59.3189 174.323 59.4603 174.181C59.6157 174.026 59.8277 173.948 60.0963 173.948ZM56.1107 187.728C57.1141 187.728 57.8844 187.389 58.4215 186.71C58.9727 186.018 59.2483 185.043 59.2483 183.785C59.2483 182.527 58.9727 181.559 58.4215 180.88C57.8844 180.202 57.1141 179.863 56.1107 179.863C55.1072 179.863 54.3228 180.202 53.7575 180.88C53.2063 181.559 52.9307 182.513 52.9307 183.742C52.9307 185 53.2063 185.983 53.7575 186.689C54.3228 187.382 55.1072 187.728 56.1107 187.728Z" fill="#EEEEEE"/>
<path d="M69.0009 178.421C71.5873 178.421 72.8805 179.778 72.8805 182.492V188.258C72.8805 188.512 72.8028 188.717 72.6473 188.873C72.506 189.028 72.3081 189.106 72.0537 189.106C71.7993 189.106 71.5944 189.028 71.4389 188.873C71.2835 188.717 71.2057 188.512 71.2057 188.258V187.24C70.9372 187.848 70.5273 188.322 69.9761 188.661C69.4249 188.986 68.7889 189.148 68.0681 189.148C67.4039 189.148 66.7891 189.014 66.2237 188.746C65.6725 188.477 65.2344 188.103 64.9093 187.622C64.5843 187.141 64.4217 186.611 64.4217 186.032C64.4217 185.255 64.6196 184.654 65.0153 184.23C65.4111 183.792 66.0612 183.481 66.9657 183.297C67.8703 183.099 69.1281 183 70.7393 183H71.2057V182.301C71.2057 181.453 71.0291 180.831 70.6757 180.435C70.3365 180.039 69.7783 179.842 69.0009 179.842C68.0399 179.842 67.0647 180.103 66.0753 180.626C65.6937 180.866 65.4252 180.986 65.2697 180.986C65.1001 180.986 64.9588 180.923 64.8457 180.796C64.7327 180.668 64.6761 180.506 64.6761 180.308C64.6761 180.11 64.7327 179.941 64.8457 179.799C64.9729 179.644 65.1708 179.488 65.4393 179.333C65.934 179.05 66.4923 178.831 67.1141 178.676C67.7501 178.506 68.3791 178.421 69.0009 178.421ZM68.3013 187.792C69.1493 187.792 69.8419 187.509 70.3789 186.944C70.9301 186.364 71.2057 185.622 71.2057 184.718V184.103H70.8241C69.5804 184.103 68.6335 184.159 67.9833 184.272C67.3332 184.371 66.8668 184.548 66.5841 184.802C66.3156 185.043 66.1813 185.403 66.1813 185.884C66.1813 186.435 66.3792 186.894 66.7749 187.262C67.1848 187.615 67.6936 187.792 68.3013 187.792Z" fill="#EEEEEE"/>
<path d="M77.0722 173.948C77.4255 173.948 77.7082 174.089 77.9202 174.372C78.1463 174.641 78.2594 175.05 78.2594 175.602C78.2594 176.718 77.899 177.658 77.1782 178.421C77.0368 178.563 76.8814 178.633 76.7118 178.633C76.5563 178.633 76.422 178.584 76.309 178.485C76.1959 178.372 76.1394 178.245 76.1394 178.103C76.1394 177.948 76.1959 177.813 76.309 177.7C76.6764 177.333 76.9096 176.867 77.0086 176.301C76.6976 176.273 76.4362 176.153 76.2242 175.941C76.0263 175.729 75.9274 175.46 75.9274 175.135C75.9274 174.782 76.0334 174.499 76.2454 174.287C76.4715 174.061 76.7471 173.948 77.0722 173.948Z" fill="#EEEEEE"/>
<path d="M84.6028 189.148C83.9527 189.148 83.3308 189.071 82.7372 188.915C82.1577 188.76 81.6419 188.541 81.1896 188.258C80.9352 188.088 80.7515 187.933 80.6384 187.792C80.5395 187.636 80.49 187.452 80.49 187.24C80.49 187.057 80.5395 186.908 80.6384 186.795C80.7515 186.668 80.8928 186.604 81.0624 186.604C81.232 186.604 81.4793 186.71 81.8044 186.922C82.2284 187.177 82.6453 187.382 83.0552 187.537C83.4792 187.679 84.0021 187.749 84.624 187.749C85.3872 187.749 85.9808 187.615 86.4048 187.346C86.8288 187.078 87.0408 186.689 87.0408 186.18C87.0408 185.869 86.9631 185.622 86.8076 185.438C86.6521 185.241 86.3836 185.071 86.002 184.93C85.6204 184.774 85.0621 184.619 84.3272 184.463C83.0835 184.195 82.1931 183.834 81.656 183.382C81.1189 182.93 80.8504 182.315 80.8504 181.538C80.8504 180.93 81.02 180.393 81.3592 179.926C81.6984 179.46 82.1648 179.093 82.7584 178.824C83.3661 178.555 84.0516 178.421 84.8148 178.421C85.366 178.421 85.896 178.499 86.4048 178.654C86.9277 178.796 87.3871 179.001 87.7828 179.269C88.2633 179.608 88.5036 179.962 88.5036 180.329C88.5036 180.513 88.4471 180.668 88.334 180.796C88.2209 180.923 88.0867 180.986 87.9312 180.986C87.7616 180.986 87.5072 180.866 87.168 180.626C86.7723 180.372 86.3977 180.174 86.0444 180.032C85.6911 179.891 85.2529 179.82 84.73 179.82C84.0657 179.82 83.5287 179.969 83.1188 180.266C82.7231 180.562 82.5252 180.958 82.5252 181.453C82.5252 181.764 82.5959 182.018 82.7372 182.216C82.8927 182.4 83.14 182.569 83.4792 182.725C83.8325 182.866 84.3343 183.007 84.9844 183.149C85.9455 183.361 86.6875 183.594 87.2104 183.848C87.7475 184.103 88.1291 184.414 88.3552 184.781C88.5813 185.149 88.6944 185.615 88.6944 186.18C88.6944 187.071 88.3199 187.792 87.5708 188.343C86.8217 188.88 85.8324 189.148 84.6028 189.148Z" fill="#EEEEEE"/>
<path d="M103.244 178.421C104.148 178.421 104.947 178.64 105.639 179.078C106.332 179.517 106.869 180.138 107.25 180.944C107.632 181.75 107.823 182.682 107.823 183.742C107.823 184.817 107.632 185.763 107.25 186.583C106.869 187.389 106.332 188.018 105.639 188.47C104.947 188.922 104.148 189.148 103.244 189.148C102.438 189.148 101.731 188.972 101.124 188.618C100.53 188.265 100.078 187.763 99.7668 187.113V188.258C99.7668 188.512 99.689 188.717 99.5336 188.873C99.3922 189.028 99.1873 189.106 98.9188 189.106C98.6502 189.106 98.4382 189.028 98.2828 188.873C98.1273 188.717 98.0496 188.512 98.0496 188.258V174.775C98.0496 174.535 98.1273 174.337 98.2828 174.181C98.4382 174.026 98.6502 173.948 98.9188 173.948C99.1873 173.948 99.3922 174.026 99.5336 174.181C99.689 174.323 99.7668 174.52 99.7668 174.775V180.456C100.078 179.806 100.53 179.305 101.124 178.951C101.731 178.598 102.438 178.421 103.244 178.421ZM102.904 187.728C103.908 187.728 104.685 187.382 105.236 186.689C105.788 185.983 106.063 185 106.063 183.742C106.063 182.513 105.788 181.559 105.236 180.88C104.685 180.202 103.908 179.863 102.904 179.863C101.901 179.863 101.124 180.202 100.572 180.88C100.035 181.559 99.7668 182.527 99.7668 183.785C99.7668 185.043 100.035 186.018 100.572 186.71C101.124 187.389 101.901 187.728 102.904 187.728Z" fill="#EEEEEE"/>
<path d="M111.894 189.106C111.639 189.106 111.427 189.035 111.258 188.894C111.102 188.739 111.025 188.527 111.025 188.258V179.312C111.025 179.043 111.102 178.838 111.258 178.697C111.427 178.541 111.639 178.464 111.894 178.464C112.148 178.464 112.353 178.541 112.509 178.697C112.664 178.838 112.742 179.043 112.742 179.312V188.258C112.742 188.541 112.664 188.753 112.509 188.894C112.353 189.035 112.148 189.106 111.894 189.106ZM111.894 176.238C111.555 176.238 111.279 176.139 111.067 175.941C110.855 175.743 110.749 175.481 110.749 175.156C110.749 174.845 110.855 174.591 111.067 174.393C111.279 174.195 111.555 174.096 111.894 174.096C112.233 174.096 112.509 174.195 112.721 174.393C112.933 174.591 113.039 174.845 113.039 175.156C113.039 175.481 112.933 175.743 112.721 175.941C112.509 176.139 112.233 176.238 111.894 176.238Z" fill="#EEEEEE"/>
<path d="M124.962 178.464C125.231 178.464 125.443 178.541 125.598 178.697C125.753 178.852 125.831 179.057 125.831 179.312V188.3C125.831 189.841 125.435 191 124.644 191.777C123.853 192.569 122.679 192.964 121.125 192.964C119.613 192.964 118.355 192.668 117.351 192.074C116.842 191.791 116.588 191.466 116.588 191.099C116.588 190.901 116.637 190.738 116.736 190.611C116.849 190.484 116.991 190.42 117.16 190.42C117.302 190.42 117.556 190.519 117.924 190.717C118.418 190.972 118.906 191.177 119.386 191.332C119.867 191.487 120.439 191.565 121.104 191.565C122.107 191.565 122.863 191.297 123.372 190.76C123.881 190.237 124.135 189.466 124.135 188.449V186.626C123.838 187.29 123.379 187.799 122.757 188.152C122.149 188.505 121.429 188.682 120.595 188.682C119.69 188.682 118.885 188.47 118.178 188.046C117.485 187.622 116.941 187.021 116.546 186.244C116.164 185.467 115.973 184.569 115.973 183.552C115.973 182.534 116.164 181.637 116.546 180.859C116.941 180.082 117.485 179.481 118.178 179.057C118.885 178.633 119.69 178.421 120.595 178.421C121.415 178.421 122.128 178.598 122.736 178.951C123.344 179.305 123.803 179.806 124.114 180.456V179.312C124.114 179.057 124.185 178.852 124.326 178.697C124.481 178.541 124.693 178.464 124.962 178.464ZM120.934 187.262C121.923 187.262 122.701 186.937 123.266 186.286C123.831 185.622 124.114 184.711 124.114 183.552C124.114 182.407 123.831 181.509 123.266 180.859C122.715 180.195 121.937 179.863 120.934 179.863C119.931 179.863 119.139 180.195 118.56 180.859C117.994 181.509 117.712 182.407 117.712 183.552C117.712 184.711 117.994 185.622 118.56 186.286C119.139 186.937 119.931 187.262 120.934 187.262Z" fill="#EEEEEE"/>
<path d="M138.02 178.464C138.288 178.464 138.5 178.541 138.656 178.697C138.811 178.852 138.889 179.057 138.889 179.312V188.3C138.889 189.841 138.493 191 137.702 191.777C136.91 192.569 135.737 192.964 134.183 192.964C132.67 192.964 131.413 192.668 130.409 192.074C129.9 191.791 129.646 191.466 129.646 191.099C129.646 190.901 129.695 190.738 129.794 190.611C129.907 190.484 130.049 190.42 130.218 190.42C130.36 190.42 130.614 190.519 130.981 190.717C131.476 190.972 131.964 191.177 132.444 191.332C132.925 191.487 133.497 191.565 134.161 191.565C135.165 191.565 135.921 191.297 136.43 190.76C136.939 190.237 137.193 189.466 137.193 188.449V186.626C136.896 187.29 136.437 187.799 135.815 188.152C135.207 188.505 134.487 188.682 133.653 188.682C132.748 188.682 131.943 188.47 131.236 188.046C130.543 187.622 129.999 187.021 129.603 186.244C129.222 185.467 129.031 184.569 129.031 183.552C129.031 182.534 129.222 181.637 129.603 180.859C129.999 180.082 130.543 179.481 131.236 179.057C131.943 178.633 132.748 178.421 133.653 178.421C134.472 178.421 135.186 178.598 135.794 178.951C136.402 179.305 136.861 179.806 137.172 180.456V179.312C137.172 179.057 137.243 178.852 137.384 178.697C137.539 178.541 137.751 178.464 138.02 178.464ZM133.992 187.262C134.981 187.262 135.759 186.937 136.324 186.286C136.889 185.622 137.172 184.711 137.172 183.552C137.172 182.407 136.889 181.509 136.324 180.859C135.773 180.195 134.995 179.863 133.992 179.863C132.988 179.863 132.197 180.195 131.617 180.859C131.052 181.509 130.769 182.407 130.769 183.552C130.769 184.711 131.052 185.622 131.617 186.286C132.197 186.937 132.988 187.262 133.992 187.262Z" fill="#EEEEEE"/>
<path d="M150.696 186.604C150.852 186.604 150.986 186.668 151.099 186.795C151.212 186.922 151.269 187.085 151.269 187.283C151.269 187.636 151.021 187.961 150.527 188.258C150.018 188.555 149.481 188.781 148.915 188.936C148.35 189.078 147.799 189.148 147.262 189.148C145.665 189.148 144.4 188.675 143.467 187.728C142.548 186.781 142.089 185.474 142.089 183.806C142.089 182.746 142.294 181.813 142.704 181.008C143.114 180.188 143.686 179.552 144.421 179.1C145.17 178.647 146.018 178.421 146.965 178.421C148.308 178.421 149.375 178.859 150.166 179.736C150.958 180.612 151.353 181.799 151.353 183.297C151.353 183.58 151.297 183.785 151.184 183.912C151.071 184.039 150.887 184.103 150.633 184.103H143.806C143.933 186.534 145.085 187.749 147.262 187.749C147.813 187.749 148.286 187.679 148.682 187.537C149.078 187.382 149.502 187.177 149.954 186.922C150.322 186.71 150.569 186.604 150.696 186.604ZM146.986 179.757C146.082 179.757 145.354 180.039 144.803 180.605C144.265 181.17 143.947 181.969 143.849 183H149.848C149.82 181.955 149.558 181.156 149.064 180.605C148.569 180.039 147.877 179.757 146.986 179.757Z" fill="#EEEEEE"/>
<path d="M157.996 189.148C157.346 189.148 156.724 189.071 156.131 188.915C155.551 188.76 155.035 188.541 154.583 188.258C154.329 188.088 154.145 187.933 154.032 187.792C153.933 187.636 153.883 187.452 153.883 187.24C153.883 187.057 153.933 186.908 154.032 186.795C154.145 186.668 154.286 186.604 154.456 186.604C154.625 186.604 154.873 186.71 155.198 186.922C155.622 187.177 156.039 187.382 156.449 187.537C156.873 187.679 157.396 187.749 158.017 187.749C158.781 187.749 159.374 187.615 159.798 187.346C160.222 187.078 160.434 186.689 160.434 186.18C160.434 185.869 160.356 185.622 160.201 185.438C160.046 185.241 159.777 185.071 159.395 184.93C159.014 184.774 158.456 184.619 157.721 184.463C156.477 184.195 155.586 183.834 155.049 183.382C154.512 182.93 154.244 182.315 154.244 181.538C154.244 180.93 154.413 180.393 154.753 179.926C155.092 179.46 155.558 179.093 156.152 178.824C156.76 178.555 157.445 178.421 158.208 178.421C158.759 178.421 159.289 178.499 159.798 178.654C160.321 178.796 160.78 179.001 161.176 179.269C161.657 179.608 161.897 179.962 161.897 180.329C161.897 180.513 161.84 180.668 161.727 180.796C161.614 180.923 161.48 180.986 161.325 180.986C161.155 180.986 160.901 180.866 160.561 180.626C160.166 180.372 159.791 180.174 159.438 180.032C159.084 179.891 158.646 179.82 158.123 179.82C157.459 179.82 156.922 179.969 156.512 180.266C156.116 180.562 155.919 180.958 155.919 181.453C155.919 181.764 155.989 182.018 156.131 182.216C156.286 182.4 156.533 182.569 156.873 182.725C157.226 182.866 157.728 183.007 158.378 183.149C159.339 183.361 160.081 183.594 160.604 183.848C161.141 184.103 161.522 184.414 161.749 184.781C161.975 185.149 162.088 185.615 162.088 186.18C162.088 187.071 161.713 187.792 160.964 188.343C160.215 188.88 159.226 189.148 157.996 189.148Z" fill="#EEEEEE"/>
<path d="M170.008 187.749C170.502 187.792 170.75 188.018 170.75 188.428C170.75 188.668 170.658 188.852 170.474 188.979C170.305 189.092 170.043 189.134 169.69 189.106L169.117 189.064C167.987 188.979 167.153 188.64 166.616 188.046C166.079 187.452 165.81 186.555 165.81 185.354V180.032H164.39C164.15 180.032 163.959 179.976 163.817 179.863C163.69 179.736 163.627 179.573 163.627 179.375C163.627 179.163 163.69 178.994 163.817 178.866C163.959 178.739 164.15 178.676 164.39 178.676H165.81V176.28C165.81 176.011 165.888 175.807 166.043 175.665C166.199 175.51 166.411 175.432 166.679 175.432C166.934 175.432 167.139 175.51 167.294 175.665C167.45 175.807 167.527 176.011 167.527 176.28V178.676H169.881C170.107 178.676 170.283 178.739 170.411 178.866C170.552 178.994 170.623 179.163 170.623 179.375C170.623 179.573 170.552 179.736 170.411 179.863C170.283 179.976 170.107 180.032 169.881 180.032H167.527V185.438C167.527 186.216 167.683 186.781 167.994 187.134C168.319 187.474 168.799 187.664 169.435 187.707L170.008 187.749Z" fill="#EEEEEE"/>
<path d="M184.374 178.421C185.279 178.421 186.077 178.647 186.77 179.1C187.462 179.552 187.999 180.188 188.381 181.008C188.763 181.813 188.953 182.753 188.953 183.827C188.953 184.901 188.763 185.841 188.381 186.647C187.999 187.438 187.462 188.053 186.77 188.491C186.091 188.929 185.293 189.148 184.374 189.148C183.569 189.148 182.862 188.972 182.254 188.618C181.661 188.265 181.208 187.763 180.897 187.113V192.095C180.897 192.35 180.82 192.547 180.664 192.689C180.523 192.844 180.318 192.922 180.049 192.922C179.781 192.922 179.569 192.844 179.413 192.689C179.258 192.533 179.18 192.335 179.18 192.095V179.312C179.18 179.057 179.258 178.852 179.413 178.697C179.569 178.541 179.781 178.464 180.049 178.464C180.318 178.464 180.523 178.541 180.664 178.697C180.82 178.852 180.897 179.057 180.897 179.312V180.456C181.208 179.806 181.661 179.305 182.254 178.951C182.862 178.598 183.569 178.421 184.374 178.421ZM184.035 187.728C185.038 187.728 185.816 187.389 186.367 186.71C186.918 186.032 187.194 185.071 187.194 183.827C187.194 182.583 186.918 181.615 186.367 180.923C185.816 180.216 185.038 179.863 184.035 179.863C183.031 179.863 182.254 180.202 181.703 180.88C181.166 181.559 180.897 182.527 180.897 183.785C180.897 185.043 181.166 186.018 181.703 186.71C182.254 187.389 183.031 187.728 184.035 187.728Z" fill="#EEEEEE"/>
<path d="M197.37 178.421C198.586 178.421 199.505 178.767 200.126 179.46C200.748 180.138 201.059 181.156 201.059 182.513V188.258C201.059 188.527 200.981 188.739 200.826 188.894C200.671 189.035 200.466 189.106 200.211 189.106C199.943 189.106 199.731 189.035 199.575 188.894C199.42 188.739 199.342 188.527 199.342 188.258V182.555C199.342 181.637 199.151 180.958 198.77 180.52C198.402 180.082 197.809 179.863 196.989 179.863C196.042 179.863 195.286 180.153 194.72 180.732C194.155 181.311 193.872 182.096 193.872 183.085V188.258C193.872 188.527 193.795 188.739 193.639 188.894C193.498 189.035 193.293 189.106 193.024 189.106C192.756 189.106 192.544 189.035 192.388 188.894C192.233 188.739 192.155 188.527 192.155 188.258V174.775C192.155 174.535 192.233 174.337 192.388 174.181C192.558 174.026 192.77 173.948 193.024 173.948C193.293 173.948 193.498 174.026 193.639 174.181C193.795 174.323 193.872 174.52 193.872 174.775V180.329C194.212 179.707 194.685 179.234 195.293 178.909C195.901 178.584 196.593 178.421 197.37 178.421Z" fill="#EEEEEE"/>
<path d="M209.059 178.421C211.646 178.421 212.939 179.778 212.939 182.492V188.258C212.939 188.512 212.861 188.717 212.706 188.873C212.564 189.028 212.366 189.106 212.112 189.106C211.858 189.106 211.653 189.028 211.497 188.873C211.342 188.717 211.264 188.512 211.264 188.258V187.24C210.995 187.848 210.586 188.322 210.034 188.661C209.483 188.986 208.847 189.148 208.126 189.148C207.462 189.148 206.847 189.014 206.282 188.746C205.731 188.477 205.293 188.103 204.968 187.622C204.643 187.141 204.48 186.611 204.48 186.032C204.48 185.255 204.678 184.654 205.074 184.23C205.469 183.792 206.119 183.481 207.024 183.297C207.929 183.099 209.186 183 210.798 183H211.264V182.301C211.264 181.453 211.087 180.831 210.734 180.435C210.395 180.039 209.837 179.842 209.059 179.842C208.098 179.842 207.123 180.103 206.134 180.626C205.752 180.866 205.484 180.986 205.328 180.986C205.158 180.986 205.017 180.923 204.904 180.796C204.791 180.668 204.734 180.506 204.734 180.308C204.734 180.11 204.791 179.941 204.904 179.799C205.031 179.644 205.229 179.488 205.498 179.333C205.992 179.05 206.551 178.831 207.172 178.676C207.808 178.506 208.437 178.421 209.059 178.421ZM208.36 187.792C209.208 187.792 209.9 187.509 210.437 186.944C210.988 186.364 211.264 185.622 211.264 184.718V184.103H210.882C209.639 184.103 208.692 184.159 208.042 184.272C207.391 184.371 206.925 184.548 206.642 184.802C206.374 185.043 206.24 185.403 206.24 185.884C206.24 186.435 206.437 186.894 206.833 187.262C207.243 187.615 207.752 187.792 208.36 187.792Z" fill="#EEEEEE"/>
<path d="M221.827 178.464C222.421 178.421 222.718 178.661 222.718 179.184C222.718 179.411 222.654 179.594 222.527 179.736C222.4 179.863 222.181 179.941 221.87 179.969L221.234 180.032C220.287 180.117 219.58 180.456 219.114 181.05C218.662 181.629 218.435 182.315 218.435 183.106V188.258C218.435 188.541 218.358 188.753 218.202 188.894C218.047 189.035 217.842 189.106 217.587 189.106C217.333 189.106 217.121 189.035 216.951 188.894C216.796 188.739 216.718 188.527 216.718 188.258V179.312C216.718 179.043 216.803 178.838 216.973 178.697C217.142 178.541 217.347 178.464 217.587 178.464C217.814 178.464 218.004 178.541 218.16 178.697C218.315 178.838 218.393 179.036 218.393 179.29V180.478C218.69 179.856 219.107 179.382 219.644 179.057C220.195 178.732 220.824 178.541 221.531 178.485L221.827 178.464Z" fill="#EEEEEE"/>
<path d="M236.318 178.421C238.608 178.421 239.753 179.785 239.753 182.513V188.258C239.753 188.527 239.675 188.739 239.52 188.894C239.364 189.035 239.159 189.106 238.905 189.106C238.65 189.106 238.438 189.035 238.269 188.894C238.113 188.739 238.036 188.527 238.036 188.258V182.555C238.036 181.608 237.866 180.923 237.527 180.499C237.188 180.075 236.658 179.863 235.937 179.863C235.075 179.863 234.396 180.153 233.902 180.732C233.407 181.311 233.16 182.096 233.16 183.085V188.258C233.16 188.527 233.075 188.739 232.905 188.894C232.75 189.035 232.545 189.106 232.29 189.106C232.036 189.106 231.831 189.035 231.676 188.894C231.52 188.739 231.442 188.527 231.442 188.258V182.555C231.442 181.608 231.273 180.923 230.934 180.499C230.594 180.075 230.057 179.863 229.322 179.863C228.474 179.863 227.796 180.153 227.287 180.732C226.793 181.311 226.545 182.096 226.545 183.085V188.258C226.545 188.527 226.468 188.739 226.312 188.894C226.157 189.035 225.952 189.106 225.697 189.106C225.443 189.106 225.231 189.035 225.061 188.894C224.906 188.739 224.828 188.527 224.828 188.258V179.312C224.828 179.057 224.906 178.852 225.061 178.697C225.231 178.541 225.443 178.464 225.697 178.464C225.938 178.464 226.135 178.541 226.291 178.697C226.446 178.838 226.524 179.036 226.524 179.29V180.308C226.835 179.7 227.266 179.234 227.817 178.909C228.368 178.584 229.004 178.421 229.725 178.421C231.336 178.421 232.389 179.1 232.884 180.456C233.181 179.835 233.633 179.34 234.241 178.972C234.849 178.605 235.541 178.421 236.318 178.421Z" fill="#EEEEEE"/>
<path d="M247.736 178.421C250.322 178.421 251.616 179.778 251.616 182.492V188.258C251.616 188.512 251.538 188.717 251.382 188.873C251.241 189.028 251.043 189.106 250.789 189.106C250.534 189.106 250.329 189.028 250.174 188.873C250.019 188.717 249.941 188.512 249.941 188.258V187.24C249.672 187.848 249.262 188.322 248.711 188.661C248.16 188.986 247.524 189.148 246.803 189.148C246.139 189.148 245.524 189.014 244.959 188.746C244.408 188.477 243.969 188.103 243.644 187.622C243.319 187.141 243.157 186.611 243.157 186.032C243.157 185.255 243.355 184.654 243.75 184.23C244.146 183.792 244.796 183.481 245.701 183.297C246.605 183.099 247.863 183 249.474 183H249.941V182.301C249.941 181.453 249.764 180.831 249.411 180.435C249.072 180.039 248.513 179.842 247.736 179.842C246.775 179.842 245.8 180.103 244.81 180.626C244.429 180.866 244.16 180.986 244.005 180.986C243.835 180.986 243.694 180.923 243.581 180.796C243.468 180.668 243.411 180.506 243.411 180.308C243.411 180.11 243.468 179.941 243.581 179.799C243.708 179.644 243.906 179.488 244.174 179.333C244.669 179.05 245.227 178.831 245.849 178.676C246.485 178.506 247.114 178.421 247.736 178.421ZM247.036 187.792C247.884 187.792 248.577 187.509 249.114 186.944C249.665 186.364 249.941 185.622 249.941 184.718V184.103H249.559C248.315 184.103 247.369 184.159 246.718 184.272C246.068 184.371 245.602 184.548 245.319 184.802C245.051 185.043 244.916 185.403 244.916 185.884C244.916 186.435 245.114 186.894 245.51 187.262C245.92 187.615 246.429 187.792 247.036 187.792Z" fill="#EEEEEE"/>
<path d="M266.712 178.421C267.927 178.421 268.846 178.767 269.468 179.46C270.09 180.138 270.401 181.156 270.401 182.513V188.258C270.401 188.527 270.323 188.739 270.167 188.894C270.012 189.035 269.807 189.106 269.553 189.106C269.284 189.106 269.072 189.035 268.917 188.894C268.761 188.739 268.683 188.527 268.683 188.258V182.555C268.683 181.637 268.493 180.958 268.111 180.52C267.744 180.082 267.15 179.863 266.33 179.863C265.383 179.863 264.627 180.153 264.062 180.732C263.496 181.311 263.214 182.096 263.214 183.085V188.258C263.214 188.527 263.136 188.739 262.981 188.894C262.839 189.035 262.634 189.106 262.366 189.106C262.097 189.106 261.885 189.035 261.73 188.894C261.574 188.739 261.497 188.527 261.497 188.258V174.775C261.497 174.535 261.574 174.337 261.73 174.181C261.899 174.026 262.111 173.948 262.366 173.948C262.634 173.948 262.839 174.026 262.981 174.181C263.136 174.323 263.214 174.52 263.214 174.775V180.329C263.553 179.707 264.026 179.234 264.634 178.909C265.242 178.584 265.934 178.421 266.712 178.421Z" fill="#EEEEEE"/>
<path d="M278.401 178.421C280.987 178.421 282.28 179.778 282.28 182.492V188.258C282.28 188.512 282.202 188.717 282.047 188.873C281.906 189.028 281.708 189.106 281.453 189.106C281.199 189.106 280.994 189.028 280.839 188.873C280.683 188.717 280.605 188.512 280.605 188.258V187.24C280.337 187.848 279.927 188.322 279.376 188.661C278.825 188.986 278.189 189.148 277.468 189.148C276.804 189.148 276.189 189.014 275.623 188.746C275.072 188.477 274.634 188.103 274.309 187.622C273.984 187.141 273.821 186.611 273.821 186.032C273.821 185.255 274.019 184.654 274.415 184.23C274.811 183.792 275.461 183.481 276.365 183.297C277.27 183.099 278.528 183 280.139 183H280.605V182.301C280.605 181.453 280.429 180.831 280.075 180.435C279.736 180.039 279.178 179.842 278.401 179.842C277.44 179.842 276.464 180.103 275.475 180.626C275.093 180.866 274.825 180.986 274.669 180.986C274.5 180.986 274.358 180.923 274.245 180.796C274.132 180.668 274.076 180.506 274.076 180.308C274.076 180.11 274.132 179.941 274.245 179.799C274.373 179.644 274.57 179.488 274.839 179.333C275.334 179.05 275.892 178.831 276.514 178.676C277.15 178.506 277.779 178.421 278.401 178.421ZM277.701 187.792C278.549 187.792 279.242 187.509 279.779 186.944C280.33 186.364 280.605 185.622 280.605 184.718V184.103H280.224C278.98 184.103 278.033 184.159 277.383 184.272C276.733 184.371 276.266 184.548 275.984 184.802C275.715 185.043 275.581 185.403 275.581 185.884C275.581 186.435 275.779 186.894 276.175 187.262C276.584 187.615 277.093 187.792 277.701 187.792Z" fill="#EEEEEE"/>
<path d="M290.321 189.148C289.36 189.148 288.505 188.929 287.756 188.491C287.021 188.053 286.448 187.431 286.038 186.626C285.643 185.82 285.445 184.887 285.445 183.827C285.445 182.767 285.65 181.827 286.06 181.008C286.484 180.188 287.07 179.552 287.819 179.1C288.568 178.647 289.43 178.421 290.406 178.421C290.943 178.421 291.473 178.499 291.996 178.654C292.533 178.796 292.999 179.008 293.395 179.29C293.649 179.46 293.826 179.63 293.925 179.799C294.038 179.955 294.094 180.131 294.094 180.329C294.094 180.527 294.038 180.69 293.925 180.817C293.826 180.944 293.692 181.008 293.522 181.008C293.423 181.008 293.317 180.979 293.204 180.923C293.091 180.866 292.992 180.81 292.907 180.753C292.837 180.697 292.787 180.661 292.759 180.647C292.391 180.407 292.038 180.216 291.699 180.075C291.374 179.933 290.971 179.863 290.49 179.863C289.459 179.863 288.653 180.216 288.074 180.923C287.508 181.615 287.226 182.583 287.226 183.827C287.226 185.071 287.508 186.032 288.074 186.71C288.653 187.389 289.459 187.728 290.49 187.728C290.971 187.728 291.381 187.657 291.72 187.516C292.073 187.375 292.427 187.184 292.78 186.944C292.935 186.845 293.084 186.76 293.225 186.689C293.367 186.619 293.487 186.583 293.586 186.583C293.741 186.583 293.868 186.647 293.967 186.774C294.08 186.901 294.137 187.064 294.137 187.262C294.137 187.445 294.087 187.615 293.988 187.77C293.889 187.912 293.706 188.074 293.437 188.258C293.041 188.527 292.561 188.746 291.996 188.915C291.444 189.071 290.886 189.148 290.321 189.148Z" fill="#EEEEEE"/>
<path d="M305.087 187.643C305.313 187.855 305.426 188.081 305.426 188.322C305.426 188.534 305.348 188.717 305.193 188.873C305.052 189.028 304.875 189.106 304.663 189.106C304.479 189.106 304.288 189.021 304.091 188.852L298.557 184.082V188.258C298.557 188.527 298.473 188.739 298.303 188.894C298.147 189.035 297.95 189.106 297.709 189.106C297.455 189.106 297.243 189.035 297.073 188.894C296.918 188.739 296.84 188.527 296.84 188.258V174.796C296.84 174.527 296.918 174.323 297.073 174.181C297.243 174.026 297.455 173.948 297.709 173.948C297.95 173.948 298.147 174.026 298.303 174.181C298.473 174.323 298.557 174.527 298.557 174.796V183.403L303.624 178.76C303.794 178.591 303.985 178.506 304.197 178.506C304.409 178.506 304.592 178.584 304.748 178.739C304.903 178.895 304.981 179.078 304.981 179.29C304.981 179.531 304.882 179.743 304.684 179.926L300.508 183.658L305.087 187.643Z" fill="#EEEEEE"/>
<path d="M312.212 178.421C314.799 178.421 316.092 179.778 316.092 182.492V188.258C316.092 188.512 316.014 188.717 315.859 188.873C315.717 189.028 315.519 189.106 315.265 189.106C315.011 189.106 314.806 189.028 314.65 188.873C314.495 188.717 314.417 188.512 314.417 188.258V187.24C314.148 187.848 313.739 188.322 313.187 188.661C312.636 188.986 312 189.148 311.279 189.148C310.615 189.148 310 189.014 309.435 188.746C308.884 188.477 308.446 188.103 308.121 187.622C307.795 187.141 307.633 186.611 307.633 186.032C307.633 185.255 307.831 184.654 308.227 184.23C308.622 183.792 309.272 183.481 310.177 183.297C311.081 183.099 312.339 183 313.951 183H314.417V182.301C314.417 181.453 314.24 180.831 313.887 180.435C313.548 180.039 312.989 179.842 312.212 179.842C311.251 179.842 310.276 180.103 309.287 180.626C308.905 180.866 308.636 180.986 308.481 180.986C308.311 180.986 308.17 180.923 308.057 180.796C307.944 180.668 307.887 180.506 307.887 180.308C307.887 180.11 307.944 179.941 308.057 179.799C308.184 179.644 308.382 179.488 308.651 179.333C309.145 179.05 309.703 178.831 310.325 178.676C310.961 178.506 311.59 178.421 312.212 178.421ZM311.513 187.792C312.361 187.792 313.053 187.509 313.59 186.944C314.141 186.364 314.417 185.622 314.417 184.718V184.103H314.035C312.792 184.103 311.845 184.159 311.195 184.272C310.544 184.371 310.078 184.548 309.795 184.802C309.527 185.043 309.393 185.403 309.393 185.884C309.393 186.435 309.59 186.894 309.986 187.262C310.396 187.615 310.905 187.792 311.513 187.792Z" fill="#EEEEEE"/>
<path d="M324.641 187.749C325.136 187.792 325.383 188.018 325.383 188.428C325.383 188.668 325.291 188.852 325.108 188.979C324.938 189.092 324.676 189.134 324.323 189.106L323.751 189.064C322.62 188.979 321.786 188.64 321.249 188.046C320.712 187.452 320.444 186.555 320.444 185.354V180.032H319.023C318.783 180.032 318.592 179.976 318.451 179.863C318.324 179.736 318.26 179.573 318.26 179.375C318.26 179.163 318.324 178.994 318.451 178.866C318.592 178.739 318.783 178.676 319.023 178.676H320.444V176.28C320.444 176.011 320.521 175.807 320.677 175.665C320.832 175.51 321.044 175.432 321.313 175.432C321.567 175.432 321.772 175.51 321.928 175.665C322.083 175.807 322.161 176.011 322.161 176.28V178.676H324.514C324.74 178.676 324.917 178.739 325.044 178.866C325.185 178.994 325.256 179.163 325.256 179.375C325.256 179.573 325.185 179.736 325.044 179.863C324.917 179.976 324.74 180.032 324.514 180.032H322.161V185.438C322.161 186.216 322.316 186.781 322.627 187.134C322.952 187.474 323.433 187.664 324.069 187.707L324.641 187.749Z" fill="#EEEEEE"/>
<path d="M332.927 178.421C334.142 178.421 335.061 178.767 335.683 179.46C336.305 180.138 336.616 181.156 336.616 182.513V188.258C336.616 188.527 336.538 188.739 336.383 188.894C336.227 189.035 336.022 189.106 335.768 189.106C335.499 189.106 335.287 189.035 335.132 188.894C334.976 188.739 334.899 188.527 334.899 188.258V182.555C334.899 181.637 334.708 180.958 334.326 180.52C333.959 180.082 333.365 179.863 332.545 179.863C331.598 179.863 330.842 180.153 330.277 180.732C329.712 181.311 329.429 182.096 329.429 183.085V188.258C329.429 188.527 329.351 188.739 329.196 188.894C329.054 189.035 328.85 189.106 328.581 189.106C328.312 189.106 328.1 189.035 327.945 188.894C327.79 188.739 327.712 188.527 327.712 188.258V174.775C327.712 174.535 327.79 174.337 327.945 174.181C328.115 174.026 328.327 173.948 328.581 173.948C328.85 173.948 329.054 174.026 329.196 174.181C329.351 174.323 329.429 174.52 329.429 174.775V180.329C329.768 179.707 330.242 179.234 330.849 178.909C331.457 178.584 332.15 178.421 332.927 178.421Z" fill="#EEEEEE"/>
<path d="M344.679 189.148C343.704 189.148 342.842 188.929 342.093 188.491C341.358 188.053 340.786 187.431 340.376 186.626C339.98 185.806 339.782 184.859 339.782 183.785C339.782 182.711 339.98 181.771 340.376 180.965C340.786 180.145 341.358 179.517 342.093 179.078C342.842 178.64 343.704 178.421 344.679 178.421C345.655 178.421 346.517 178.64 347.266 179.078C348.015 179.517 348.587 180.145 348.983 180.965C349.393 181.771 349.598 182.711 349.598 183.785C349.598 184.859 349.393 185.806 348.983 186.626C348.587 187.431 348.015 188.053 347.266 188.491C346.517 188.929 345.655 189.148 344.679 189.148ZM344.679 187.728C345.697 187.728 346.474 187.396 347.011 186.732C347.563 186.053 347.838 185.071 347.838 183.785C347.838 182.527 347.563 181.559 347.011 180.88C346.46 180.188 345.683 179.842 344.679 179.842C343.676 179.842 342.899 180.188 342.347 180.88C341.796 181.559 341.521 182.527 341.521 183.785C341.521 185.057 341.789 186.032 342.326 186.71C342.877 187.389 343.662 187.728 344.679 187.728Z" fill="#EEEEEE"/>
<path d="M357.986 178.421C360.46 178.421 361.696 179.785 361.696 182.513V188.258C361.696 188.527 361.619 188.739 361.463 188.894C361.322 189.035 361.117 189.106 360.848 189.106C360.58 189.106 360.368 189.035 360.212 188.894C360.057 188.739 359.979 188.527 359.979 188.258V182.619C359.979 181.658 359.788 180.958 359.407 180.52C359.039 180.082 358.446 179.863 357.626 179.863C356.679 179.863 355.923 180.153 355.358 180.732C354.792 181.311 354.51 182.096 354.51 183.085V188.258C354.51 188.527 354.432 188.739 354.276 188.894C354.135 189.035 353.93 189.106 353.662 189.106C353.393 189.106 353.181 189.035 353.026 188.894C352.87 188.739 352.792 188.527 352.792 188.258V179.312C352.792 179.057 352.87 178.852 353.026 178.697C353.181 178.541 353.393 178.464 353.662 178.464C353.916 178.464 354.114 178.541 354.255 178.697C354.411 178.852 354.488 179.05 354.488 179.29V180.372C354.828 179.736 355.301 179.255 355.909 178.93C356.517 178.591 357.209 178.421 357.986 178.421Z" fill="#EEEEEE"/>
<path d="M47.7565 93.6378V144.618H35.9581V123.716H12.7984V144.618H1V68.6677H12.7984V113.739H35.9581V93.6378H47.7565Z" fill="#64B5F6"/>
<path d="M97.0341 133.694H73.3645L68.8491 144.618H56.7594L79.4822 93.6378H91.1349L113.931 144.618H101.55L97.0341 133.694ZM97.0341 133.694L85.2357 105.218L73.3645 133.694H97.0341Z" fill="#64B5F6"/>
<path d="M146.548 145.492C141.353 145.492 136.643 144.376 132.419 142.142C128.243 139.86 124.942 136.729 122.514 132.747C120.135 128.717 118.946 124.178 118.946 119.128C118.946 114.079 120.135 109.563 122.514 105.582C124.942 101.552 128.243 98.4203 132.419 96.1868C136.643 93.9048 141.377 92.7638 146.621 92.7638C151.039 92.7638 155.02 93.5407 158.565 95.0944C162.158 96.6481 165.168 98.8815 167.596 101.795L160.021 108.786C156.574 104.805 152.301 102.814 147.203 102.814C144.047 102.814 141.231 103.518 138.755 104.926C136.279 106.286 134.337 108.204 132.929 110.68C131.569 113.156 130.89 115.972 130.89 119.128C130.89 122.284 131.569 125.1 132.929 127.576C134.337 130.052 136.279 131.995 138.755 133.403C141.231 134.762 144.047 135.442 147.203 135.442C152.301 135.442 156.574 133.427 160.021 129.397L167.596 136.389C165.168 139.35 162.158 141.608 158.565 143.162C154.972 144.715 150.966 145.492 146.548 145.492Z" fill="#64B5F6"/>
<path d="M182.767 120.772L203.044 95.1672L218.453 94.8759L197.332 119.68L219.691 145.856H205.926L182.767 120.772Z" fill="#64B5F6"/>
<path d="M252.441 145.492C248.411 145.492 244.502 144.958 240.715 143.89C236.977 142.773 233.966 141.341 231.684 139.593L235.69 130.708C237.875 132.31 240.472 133.597 243.483 134.568C246.493 135.539 249.503 136.025 252.513 136.025C255.864 136.025 258.34 135.539 259.942 134.568C261.544 133.548 262.345 132.213 262.345 130.562C262.345 129.348 261.86 128.353 260.889 127.576C259.966 126.751 258.753 126.095 257.247 125.61C255.791 125.124 253.8 124.59 251.275 124.008C247.391 123.085 244.211 122.163 241.735 121.24C239.259 120.318 237.122 118.837 235.326 116.798C233.578 114.758 232.704 112.039 232.704 108.641C232.704 105.679 233.505 103.009 235.107 100.629C236.71 98.2018 239.113 96.2839 242.317 94.8759C245.57 93.4679 249.527 92.7638 254.189 92.7638C257.442 92.7638 260.622 93.1523 263.729 93.9291C266.837 94.706 269.556 95.8227 271.886 97.2793L268.245 106.237C263.535 103.567 258.825 102.232 254.116 102.232C250.814 102.232 248.362 102.766 246.76 103.834C245.206 104.902 244.429 106.31 244.429 108.058C244.429 109.806 245.328 111.117 247.124 111.991C248.969 112.816 251.761 113.642 255.499 114.467C259.384 115.39 262.564 116.312 265.04 117.235C267.516 118.157 269.628 119.614 271.376 121.604C273.173 123.595 274.071 126.29 274.071 129.688C274.071 132.602 273.246 135.272 271.595 137.7C269.993 140.079 267.565 141.972 264.312 143.38C261.059 144.788 257.102 145.492 252.441 145.492Z" fill="#64B5F6"/>
<path d="M23.0673 0C27.5827 0 31.4912 0.752571 34.7928 2.25771C38.143 3.76285 40.7163 5.89918 42.5128 8.6667C44.3092 11.4342 45.2074 14.7115 45.2074 18.4987C45.2074 22.2372 44.3092 25.5146 42.5128 28.3306C40.7163 31.0982 38.143 33.2345 34.7928 34.7396C31.4912 36.1962 27.5827 36.9245 23.0673 36.9245H12.7984V69.7081H1V0H23.0673ZM22.4118 27.311C25.9562 27.311 28.6509 26.5585 30.4959 25.0533C32.3409 23.4996 33.2634 21.3147 33.2634 18.4987C33.2634 15.634 32.3409 13.4492 30.4959 11.944C28.6509 10.3903 25.9562 9.61348 22.4118 9.61348H12.7984V27.311H22.4118Z" fill="#EAF9FF"/>
<path d="M104.029 0V50.9806H92.2302V30.0785H69.0705V50.9806H57.2721V0H69.0705V20.1009H92.2302V0H104.029Z" fill="#EAF9FF"/>
<path d="M153.306 40.0562H129.637L125.121 50.9806H113.032L135.754 0H147.407L170.203 50.9806H157.822L153.306 40.0562ZM153.306 40.0562L141.508 11.5799L129.637 40.0562H153.306Z" fill="#EAF9FF"/>
<path d="M211.615 50.9806L201.783 36.7788H201.201H190.932V50.9806H179.133V0H201.201C205.716 0 209.625 0.752571 212.926 2.25771C216.276 3.76285 218.85 5.89918 220.646 8.6667C222.443 11.4342 223.341 14.7115 223.341 18.4987C223.341 22.2858 222.418 25.5631 220.573 28.3306C218.777 31.0496 216.203 33.1374 212.853 34.594L224.288 50.9806H211.615ZM211.397 18.4987C211.397 15.634 210.474 13.4492 208.629 11.944C206.784 10.3903 204.09 9.61348 200.545 9.61348H190.932V27.3839H200.545C204.09 27.3839 206.784 26.607 208.629 25.0533C210.474 23.4996 211.397 21.3147 211.397 18.4987Z" fill="#EAF9FF"/>
<path d="M282.722 50.9806L282.65 20.3922L267.647 45.5912H262.33L247.4 21.0477V50.9806H236.33V0H246.089L265.17 31.6808L283.96 0H293.647L293.792 50.9806H282.722Z" fill="#EAF9FF"/>
<path d="M343.104 40.0562H319.434L314.919 50.9806H302.829L325.552 0H337.204L360 50.9806H347.619L343.104 40.0562ZM343.104 40.0562L331.305 11.5799L319.434 40.0562H343.104Z" fill="#EAF9FF"/>
<path d="M324.571 101.67V108.204H301.889V103.043L312.793 92.8471C313.847 91.8483 314.555 91.0021 314.915 90.3084C315.276 89.5871 315.456 88.8657 315.456 88.1444C315.456 87.2011 315.137 86.4658 314.499 85.9387C313.861 85.4115 312.932 85.148 311.711 85.148C310.629 85.148 309.63 85.3977 308.715 85.8971C307.827 86.3687 307.091 87.0623 306.509 87.9779L300.391 84.5653C301.529 82.6787 303.124 81.1944 305.177 80.1123C307.23 79.0303 309.658 78.4893 312.46 78.4893C314.68 78.4893 316.636 78.85 318.328 79.5713C320.048 80.2927 321.38 81.3331 322.323 82.6926C323.294 84.0243 323.78 85.578 323.78 87.3537C323.78 88.9351 323.433 90.4333 322.739 91.8483C322.074 93.2355 320.77 94.8169 318.827 96.5926L313.334 101.67H324.571Z" fill="#F2C94C"/>
<path d="M346.03 108.786C343.533 108.786 341.314 108.19 339.372 106.997C337.43 105.804 335.904 104.07 334.794 101.795C333.712 99.4919 333.171 96.7729 333.171 93.6378C333.171 90.5027 333.712 87.7976 334.794 85.5225C335.904 83.2197 337.43 81.4718 339.372 80.2788C341.314 79.0858 343.533 78.4893 346.03 78.4893C348.5 78.4893 350.705 79.0858 352.648 80.2788C354.59 81.4718 356.102 83.2197 357.184 85.5225C358.294 87.7976 358.848 90.5027 358.848 93.6378C358.848 96.7729 358.294 99.4919 357.184 101.795C356.102 104.07 354.59 105.804 352.648 106.997C350.705 108.19 348.5 108.786 346.03 108.786ZM346.03 102.044C347.418 102.044 348.514 101.379 349.318 100.047C350.151 98.6873 350.567 96.551 350.567 93.6378C350.567 90.7246 350.151 88.6022 349.318 87.2704C348.514 85.9109 347.418 85.2312 346.03 85.2312C344.616 85.2312 343.492 85.9109 342.66 87.2704C341.855 88.6022 341.453 90.7246 341.453 93.6378C341.453 96.551 341.855 98.6873 342.66 100.047C343.492 101.379 344.616 102.044 346.03 102.044Z" fill="#F2C94C"/>
<path d="M324.571 139.125V145.659H301.889V140.498L312.793 130.302C313.847 129.303 314.555 128.457 314.915 127.764C315.276 127.042 315.456 126.321 315.456 125.599C315.456 124.656 315.137 123.921 314.499 123.394C313.861 122.867 312.932 122.603 311.711 122.603C310.629 122.603 309.63 122.853 308.715 123.352C307.827 123.824 307.091 124.517 306.509 125.433L300.391 122.02C301.529 120.134 303.124 118.649 305.177 117.567C307.23 116.485 309.658 115.944 312.46 115.944C314.68 115.944 316.636 116.305 318.328 117.026C320.048 117.748 321.38 118.788 322.323 120.148C323.294 121.479 323.78 123.033 323.78 124.809C323.78 126.39 323.433 127.888 322.739 129.303C322.074 130.691 320.77 132.272 318.827 134.048L313.334 139.125H324.571Z" fill="#F2C94C"/>
<path d="M358.18 139.181V145.715H335.498V140.554L346.402 130.358C347.456 129.359 348.164 128.513 348.524 127.82C348.885 127.098 349.065 126.377 349.065 125.655C349.065 124.712 348.746 123.977 348.108 123.45C347.47 122.923 346.541 122.659 345.32 122.659C344.238 122.659 343.239 122.909 342.324 123.408C341.436 123.88 340.7 124.573 340.118 125.489L334 122.076C335.138 120.19 336.733 118.705 338.786 117.623C340.839 116.541 343.267 116 346.069 116C348.289 116 350.245 116.361 351.937 117.082C353.657 117.804 354.989 118.844 355.932 120.204C356.903 121.535 357.389 123.089 357.389 124.865C357.389 126.446 357.042 127.944 356.348 129.359C355.683 130.747 354.379 132.328 352.436 134.104L346.943 139.181H358.18Z" fill="#F2C94C"/>
<g opacity="0.15">
<path fill-rule="evenodd" clip-rule="evenodd" d="M257.476 230C261.614 230 265 233.408 265 237.632C265 241.808 261.191 248.144 258.229 251.312C257.806 251.744 257.147 251.744 256.771 251.312C253.809 248.144 250 241.808 250 237.632C250 233.408 253.339 230 257.476 230ZM257.476 233.264C259.875 233.264 261.755 235.232 261.755 237.632C261.755 240.08 259.875 242 257.476 242C255.125 242 253.197 240.08 253.197 237.632C253.197 235.232 255.125 233.264 257.476 233.264Z" fill="#EEEEEE"/>
</g>
<path d="M12.206 247V237.089L7.803 244.756H7.106L2.703 237.089V247H1.513V234.93H2.737L7.446 243.192L12.189 234.93H13.396V247H12.206ZM16.645 242.546C16.645 241.923 16.7527 241.333 16.968 240.778C17.1833 240.223 17.4837 239.741 17.869 239.333C18.2657 238.914 18.736 238.585 19.28 238.347C19.824 238.109 20.4247 237.99 21.082 237.99C21.9207 237.99 22.6517 238.183 23.275 238.568C23.8983 238.942 24.3687 239.452 24.686 240.098L23.564 240.455C23.3147 240.002 22.9633 239.65 22.51 239.401C22.068 239.14 21.575 239.01 21.031 239.01C20.5777 239.01 20.1527 239.101 19.756 239.282C19.3707 239.463 19.0307 239.713 18.736 240.03C18.4527 240.336 18.226 240.704 18.056 241.135C17.8973 241.566 17.818 242.036 17.818 242.546C17.818 243.045 17.903 243.515 18.073 243.957C18.243 244.399 18.4753 244.784 18.77 245.113C19.0647 245.43 19.4047 245.685 19.79 245.878C20.1867 246.059 20.606 246.15 21.048 246.15C21.3313 246.15 21.609 246.11 21.881 246.031C22.1643 245.952 22.425 245.844 22.663 245.708C22.901 245.561 23.105 245.396 23.275 245.215C23.445 245.034 23.564 244.841 23.632 244.637L24.771 244.977C24.6463 245.294 24.465 245.589 24.227 245.861C23.989 246.122 23.7057 246.354 23.377 246.558C23.0597 246.751 22.7027 246.898 22.306 247C21.9207 247.113 21.5183 247.17 21.099 247.17C20.453 247.17 19.858 247.051 19.314 246.813C18.77 246.564 18.2997 246.229 17.903 245.81C17.5063 245.379 17.1947 244.886 16.968 244.331C16.7527 243.776 16.645 243.181 16.645 242.546ZM36.7361 245.232C35.6141 246.467 34.3221 247.085 32.8601 247.085C32.0441 247.085 31.2904 246.909 30.5991 246.558C29.9191 246.207 29.3241 245.742 28.8141 245.164C28.3154 244.586 27.9244 243.934 27.6411 243.209C27.3577 242.472 27.2161 241.719 27.2161 240.948C27.2161 240.143 27.3521 239.373 27.6241 238.636C27.9074 237.899 28.2984 237.253 28.7971 236.698C29.2957 236.131 29.8851 235.684 30.5651 235.355C31.2451 235.015 31.9874 234.845 32.7921 234.845C33.3814 234.845 33.9197 234.913 34.4071 235.049C34.8944 235.174 35.3251 235.355 35.6991 235.593C36.0844 235.82 36.4131 236.097 36.6851 236.426C36.9684 236.743 37.2064 237.095 37.3991 237.48L36.4811 238.092C36.0844 237.344 35.5687 236.794 34.9341 236.443C34.2994 236.092 33.5797 235.916 32.7751 235.916C32.1064 235.916 31.5001 236.058 30.9561 236.341C30.4234 236.624 29.9644 237.004 29.5791 237.48C29.2051 237.945 28.9161 238.483 28.7121 239.095C28.5081 239.696 28.4061 240.319 28.4061 240.965C28.4061 241.645 28.5194 242.291 28.7461 242.903C28.9841 243.515 29.3071 244.053 29.7151 244.518C30.1231 244.971 30.5991 245.334 31.1431 245.606C31.6984 245.878 32.2991 246.014 32.9451 246.014C33.6364 246.014 34.2937 245.855 34.9171 245.538C35.5517 245.209 36.1581 244.694 36.7361 243.991V241.985H34.0501V241.067H37.7391V247H36.7361V245.232ZM41.136 247V238.143H42.292V247H41.136ZM41.136 236.29V234.59H42.292V236.29H41.136ZM46.0792 234.59H47.2352V244.994C47.2352 245.323 47.3258 245.583 47.5072 245.776C47.6885 245.957 47.9435 246.048 48.2722 246.048C48.3968 246.048 48.5442 246.031 48.7142 245.997C48.8842 245.963 49.0428 245.918 49.1902 245.861L49.3942 246.796C49.1788 246.887 48.9125 246.96 48.5952 247.017C48.2892 247.074 48.0228 247.102 47.7962 247.102C47.2635 247.102 46.8442 246.955 46.5382 246.66C46.2322 246.354 46.0792 245.929 46.0792 245.385V234.59ZM51.901 234.59H53.057V244.994C53.057 245.323 53.1477 245.583 53.329 245.776C53.5103 245.957 53.7653 246.048 54.094 246.048C54.2187 246.048 54.366 246.031 54.536 245.997C54.706 245.963 54.8647 245.918 55.012 245.861L55.216 246.796C55.0007 246.887 54.7343 246.96 54.417 247.017C54.111 247.074 53.8447 247.102 53.618 247.102C53.0853 247.102 52.666 246.955 52.36 246.66C52.054 246.354 51.901 245.929 51.901 245.385V234.59ZM67.7976 246.014C68.5569 246.014 69.1859 245.872 69.6846 245.589C70.1946 245.294 70.5969 244.915 70.8916 244.45C71.1976 243.974 71.4073 243.436 71.5206 242.835C71.6453 242.234 71.7076 241.628 71.7076 241.016V234.93H72.8976V241.016C72.8976 241.832 72.8069 242.608 72.6256 243.345C72.4443 244.07 72.1496 244.711 71.7416 245.266C71.3449 245.821 70.8236 246.263 70.1776 246.592C69.5316 246.921 68.7439 247.085 67.8146 247.085C66.8626 247.085 66.0579 246.915 65.4006 246.575C64.7546 246.224 64.2333 245.765 63.8366 245.198C63.4399 244.631 63.1566 243.985 62.9866 243.26C62.8166 242.535 62.7316 241.787 62.7316 241.016V234.93H63.9046V241.016C63.9046 241.651 63.9669 242.268 64.0916 242.869C64.2163 243.47 64.4259 244.002 64.7206 244.467C65.0266 244.932 65.4289 245.306 65.9276 245.589C66.4263 245.872 67.0496 246.014 67.7976 246.014ZM84.1326 247H82.9766V242.053C82.9766 240.999 82.8179 240.234 82.5006 239.758C82.1946 239.282 81.7186 239.044 81.0726 239.044C80.7326 239.044 80.3926 239.106 80.0526 239.231C79.7126 239.356 79.3953 239.531 79.1006 239.758C78.8173 239.985 78.5623 240.257 78.3356 240.574C78.1089 240.88 77.9446 241.214 77.8426 241.577V247H76.6866V238.143H77.7406V240.149C78.1033 239.503 78.6189 238.982 79.2876 238.585C79.9676 238.188 80.7043 237.99 81.4976 237.99C81.9849 237.99 82.3986 238.081 82.7386 238.262C83.0786 238.443 83.3506 238.698 83.5546 239.027C83.7586 239.356 83.9059 239.758 83.9966 240.234C84.0873 240.71 84.1326 241.237 84.1326 241.815V247ZM87.7877 247V238.143H88.9437V247H87.7877ZM87.7877 236.29V234.59H88.9437V236.29H87.7877ZM95.3319 247L91.7279 238.143H92.9179L95.9609 245.929L99.0209 238.143H100.143L96.5389 247H95.3319ZM106.461 247.17C105.815 247.17 105.22 247.051 104.676 246.813C104.143 246.564 103.678 246.229 103.282 245.81C102.885 245.379 102.573 244.886 102.347 244.331C102.131 243.776 102.024 243.181 102.024 242.546C102.024 241.923 102.131 241.339 102.347 240.795C102.573 240.24 102.879 239.758 103.265 239.35C103.661 238.931 104.132 238.602 104.676 238.364C105.22 238.115 105.809 237.99 106.444 237.99C107.09 237.99 107.679 238.115 108.212 238.364C108.756 238.602 109.22 238.931 109.606 239.35C109.991 239.769 110.291 240.251 110.507 240.795C110.722 241.339 110.83 241.917 110.83 242.529C110.83 242.62 110.83 242.71 110.83 242.801C110.83 242.892 110.824 242.954 110.813 242.988H103.231C103.265 243.464 103.372 243.906 103.554 244.314C103.746 244.711 103.99 245.056 104.285 245.351C104.579 245.646 104.914 245.878 105.288 246.048C105.673 246.207 106.081 246.286 106.512 246.286C106.795 246.286 107.078 246.246 107.362 246.167C107.645 246.088 107.906 245.98 108.144 245.844C108.382 245.708 108.597 245.544 108.79 245.351C108.982 245.147 109.13 244.926 109.232 244.688L110.235 244.96C110.099 245.289 109.906 245.589 109.657 245.861C109.407 246.122 109.118 246.354 108.79 246.558C108.461 246.751 108.098 246.898 107.702 247C107.305 247.113 106.891 247.17 106.461 247.17ZM109.725 242.104C109.691 241.628 109.577 241.197 109.385 240.812C109.203 240.415 108.965 240.075 108.671 239.792C108.387 239.509 108.053 239.288 107.668 239.129C107.294 238.97 106.891 238.891 106.461 238.891C106.03 238.891 105.622 238.97 105.237 239.129C104.851 239.288 104.511 239.509 104.217 239.792C103.933 240.075 103.701 240.415 103.52 240.812C103.35 241.209 103.248 241.639 103.214 242.104H109.725ZM118.223 239.163C117.441 239.186 116.761 239.401 116.183 239.809C115.605 240.217 115.197 240.778 114.959 241.492V247H113.803V238.143H114.891V240.268C115.22 239.588 115.662 239.055 116.217 238.67C116.772 238.285 117.367 238.092 118.002 238.092C118.093 238.092 118.166 238.098 118.223 238.109V239.163ZM123.894 247.17C123.203 247.17 122.528 247.057 121.871 246.83C121.214 246.603 120.647 246.275 120.171 245.844L120.698 245.062C121.197 245.47 121.701 245.776 122.211 245.98C122.732 246.184 123.288 246.286 123.877 246.286C124.591 246.286 125.158 246.144 125.577 245.861C126.008 245.566 126.223 245.153 126.223 244.62C126.223 244.371 126.166 244.167 126.053 244.008C125.94 243.838 125.77 243.691 125.543 243.566C125.328 243.441 125.05 243.334 124.71 243.243C124.381 243.141 123.996 243.039 123.554 242.937C123.044 242.812 122.602 242.688 122.228 242.563C121.854 242.438 121.542 242.297 121.293 242.138C121.055 241.979 120.874 241.787 120.749 241.56C120.636 241.322 120.579 241.027 120.579 240.676C120.579 240.234 120.664 239.843 120.834 239.503C121.015 239.163 121.253 238.885 121.548 238.67C121.854 238.443 122.205 238.273 122.602 238.16C123.01 238.047 123.441 237.99 123.894 237.99C124.574 237.99 125.192 238.103 125.747 238.33C126.302 238.545 126.75 238.834 127.09 239.197L126.529 239.877C126.2 239.537 125.798 239.282 125.322 239.112C124.857 238.942 124.37 238.857 123.86 238.857C123.554 238.857 123.271 238.891 123.01 238.959C122.749 239.016 122.517 239.112 122.313 239.248C122.12 239.384 121.967 239.56 121.854 239.775C121.741 239.979 121.684 240.223 121.684 240.506C121.684 240.744 121.724 240.937 121.803 241.084C121.882 241.231 122.013 241.362 122.194 241.475C122.375 241.577 122.602 241.673 122.874 241.764C123.157 241.843 123.497 241.928 123.894 242.019C124.461 242.155 124.959 242.291 125.39 242.427C125.821 242.563 126.178 242.722 126.461 242.903C126.756 243.084 126.977 243.305 127.124 243.566C127.271 243.827 127.345 244.144 127.345 244.518C127.345 245.334 127.033 245.98 126.41 246.456C125.787 246.932 124.948 247.17 123.894 247.17ZM130.427 247V238.143H131.583V247H130.427ZM130.427 236.29V234.59H131.583V236.29H130.427ZM139.569 246.575C139.501 246.609 139.399 246.654 139.263 246.711C139.139 246.768 138.991 246.824 138.821 246.881C138.651 246.938 138.459 246.989 138.243 247.034C138.028 247.079 137.801 247.102 137.563 247.102C137.314 247.102 137.076 247.068 136.849 247C136.623 246.932 136.424 246.83 136.254 246.694C136.084 246.547 135.948 246.365 135.846 246.15C135.744 245.935 135.693 245.685 135.693 245.402V239.061H134.469V238.143H135.693V235.151H136.849V238.143H138.889V239.061H136.849V245.079C136.872 245.408 136.985 245.651 137.189 245.81C137.405 245.957 137.648 246.031 137.92 246.031C138.249 246.031 138.538 245.98 138.787 245.878C139.037 245.765 139.195 245.685 139.263 245.64L139.569 246.575ZM142.714 249.72C142.804 249.731 142.889 249.737 142.969 249.737C143.059 249.748 143.144 249.754 143.224 249.754C143.428 249.754 143.586 249.726 143.7 249.669C143.824 249.612 143.943 249.488 144.057 249.295C144.17 249.102 144.295 248.825 144.431 248.462C144.578 248.099 144.782 247.612 145.043 247L141.184 238.143H142.374L145.655 245.929L148.698 238.143H149.803L145.213 249.567C145.088 249.896 144.878 250.179 144.584 250.417C144.3 250.666 143.909 250.791 143.411 250.791C143.297 250.791 143.19 250.785 143.088 250.774C142.986 250.774 142.861 250.763 142.714 250.74V249.72ZM151.981 248.377L152.27 246.949H151.879V245.334H153.001V246.949L152.576 248.377H151.981ZM173.256 247V237.089L168.853 244.756H168.156L163.753 237.089V247H162.563V234.93H163.787L168.496 243.192L173.239 234.93H174.446V247H173.256ZM182.081 247.17C181.435 247.17 180.846 247.051 180.313 246.813C179.781 246.564 179.316 246.229 178.919 245.81C178.534 245.391 178.234 244.903 178.018 244.348C177.803 243.793 177.695 243.209 177.695 242.597C177.695 241.974 177.803 241.384 178.018 240.829C178.245 240.274 178.551 239.786 178.936 239.367C179.333 238.948 179.798 238.613 180.33 238.364C180.863 238.115 181.447 237.99 182.081 237.99C182.716 237.99 183.3 238.115 183.832 238.364C184.376 238.613 184.841 238.948 185.226 239.367C185.623 239.786 185.929 240.274 186.144 240.829C186.371 241.384 186.484 241.974 186.484 242.597C186.484 243.209 186.377 243.793 186.161 244.348C185.946 244.903 185.64 245.391 185.243 245.81C184.858 246.229 184.393 246.564 183.849 246.813C183.317 247.051 182.727 247.17 182.081 247.17ZM178.868 242.614C178.868 243.113 178.953 243.577 179.123 244.008C179.293 244.427 179.52 244.801 179.803 245.13C180.098 245.447 180.438 245.697 180.823 245.878C181.22 246.059 181.639 246.15 182.081 246.15C182.523 246.15 182.937 246.059 183.322 245.878C183.719 245.685 184.065 245.43 184.359 245.113C184.654 244.784 184.886 244.405 185.056 243.974C185.226 243.543 185.311 243.079 185.311 242.58C185.311 242.093 185.226 241.634 185.056 241.203C184.886 240.761 184.654 240.381 184.359 240.064C184.065 239.735 183.719 239.48 183.322 239.299C182.937 239.106 182.523 239.01 182.081 239.01C181.639 239.01 181.226 239.106 180.84 239.299C180.455 239.48 180.115 239.735 179.82 240.064C179.526 240.393 179.293 240.778 179.123 241.22C178.953 241.651 178.868 242.115 178.868 242.614ZM197.054 247H195.898V242.053C195.898 240.999 195.739 240.234 195.422 239.758C195.116 239.282 194.64 239.044 193.994 239.044C193.654 239.044 193.314 239.106 192.974 239.231C192.634 239.356 192.316 239.531 192.022 239.758C191.738 239.985 191.483 240.257 191.257 240.574C191.03 240.88 190.866 241.214 190.764 241.577V247H189.608V238.143H190.662V240.149C191.024 239.503 191.54 238.982 192.209 238.585C192.889 238.188 193.625 237.99 194.419 237.99C194.906 237.99 195.32 238.081 195.66 238.262C196 238.443 196.272 238.698 196.476 239.027C196.68 239.356 196.827 239.758 196.918 240.234C197.008 240.71 197.054 241.237 197.054 241.815V247ZM204.876 246.575C204.808 246.609 204.706 246.654 204.57 246.711C204.445 246.768 204.298 246.824 204.128 246.881C203.958 246.938 203.765 246.989 203.55 247.034C203.335 247.079 203.108 247.102 202.87 247.102C202.621 247.102 202.383 247.068 202.156 247C201.929 246.932 201.731 246.83 201.561 246.694C201.391 246.547 201.255 246.365 201.153 246.15C201.051 245.935 201 245.685 201 245.402V239.061H199.776V238.143H201V235.151H202.156V238.143H204.196V239.061H202.156V245.079C202.179 245.408 202.292 245.651 202.496 245.81C202.711 245.957 202.955 246.031 203.227 246.031C203.556 246.031 203.845 245.98 204.094 245.878C204.343 245.765 204.502 245.685 204.57 245.64L204.876 246.575ZM211.93 239.163C211.148 239.186 210.468 239.401 209.89 239.809C209.312 240.217 208.904 240.778 208.666 241.492V247H207.51V238.143H208.598V240.268C208.927 239.588 209.369 239.055 209.924 238.67C210.48 238.285 211.075 238.092 211.709 238.092C211.8 238.092 211.874 238.098 211.93 238.109V239.163ZM218.037 247.17C217.391 247.17 216.796 247.051 216.252 246.813C215.719 246.564 215.255 246.229 214.858 245.81C214.461 245.379 214.15 244.886 213.923 244.331C213.708 243.776 213.6 243.181 213.6 242.546C213.6 241.923 213.708 241.339 213.923 240.795C214.15 240.24 214.456 239.758 214.841 239.35C215.238 238.931 215.708 238.602 216.252 238.364C216.796 238.115 217.385 237.99 218.02 237.99C218.666 237.99 219.255 238.115 219.788 238.364C220.332 238.602 220.797 238.931 221.182 239.35C221.567 239.769 221.868 240.251 222.083 240.795C222.298 241.339 222.406 241.917 222.406 242.529C222.406 242.62 222.406 242.71 222.406 242.801C222.406 242.892 222.4 242.954 222.389 242.988H214.807C214.841 243.464 214.949 243.906 215.13 244.314C215.323 244.711 215.566 245.056 215.861 245.351C216.156 245.646 216.49 245.878 216.864 246.048C217.249 246.207 217.657 246.286 218.088 246.286C218.371 246.286 218.655 246.246 218.938 246.167C219.221 246.088 219.482 245.98 219.72 245.844C219.958 245.708 220.173 245.544 220.366 245.351C220.559 245.147 220.706 244.926 220.808 244.688L221.811 244.96C221.675 245.289 221.482 245.589 221.233 245.861C220.984 246.122 220.695 246.354 220.366 246.558C220.037 246.751 219.675 246.898 219.278 247C218.881 247.113 218.468 247.17 218.037 247.17ZM221.301 242.104C221.267 241.628 221.154 241.197 220.961 240.812C220.78 240.415 220.542 240.075 220.247 239.792C219.964 239.509 219.629 239.288 219.244 239.129C218.87 238.97 218.468 238.891 218.037 238.891C217.606 238.891 217.198 238.97 216.813 239.129C216.428 239.288 216.088 239.509 215.793 239.792C215.51 240.075 215.277 240.415 215.096 240.812C214.926 241.209 214.824 241.639 214.79 242.104H221.301ZM227.606 247.17C227.187 247.17 226.796 247.102 226.433 246.966C226.082 246.819 225.77 246.62 225.498 246.371C225.238 246.122 225.034 245.833 224.886 245.504C224.739 245.164 224.665 244.801 224.665 244.416C224.665 244.031 224.756 243.674 224.937 243.345C225.119 243.016 225.374 242.733 225.702 242.495C226.031 242.257 226.422 242.076 226.875 241.951C227.329 241.815 227.827 241.747 228.371 241.747C228.825 241.747 229.284 241.787 229.748 241.866C230.213 241.945 230.627 242.059 230.989 242.206V241.407C230.989 240.625 230.768 240.007 230.326 239.554C229.884 239.089 229.272 238.857 228.49 238.857C228.037 238.857 227.572 238.948 227.096 239.129C226.62 239.31 226.139 239.571 225.651 239.911L225.243 239.146C226.388 238.375 227.499 237.99 228.575 237.99C229.686 237.99 230.559 238.302 231.193 238.925C231.828 239.548 232.145 240.41 232.145 241.509V245.504C232.145 245.821 232.287 245.98 232.57 245.98V247C232.378 247.034 232.23 247.051 232.128 247.051C231.834 247.051 231.601 246.977 231.431 246.83C231.273 246.683 231.188 246.479 231.176 246.218L231.142 245.521C230.734 246.054 230.219 246.462 229.595 246.745C228.983 247.028 228.32 247.17 227.606 247.17ZM227.878 246.286C228.479 246.286 229.029 246.173 229.527 245.946C230.037 245.719 230.423 245.419 230.683 245.045C230.785 244.943 230.859 244.835 230.904 244.722C230.961 244.597 230.989 244.484 230.989 244.382V242.937C230.604 242.79 230.202 242.676 229.782 242.597C229.374 242.518 228.955 242.478 228.524 242.478C227.708 242.478 227.045 242.648 226.535 242.988C226.025 243.328 225.77 243.776 225.77 244.331C225.77 244.603 225.821 244.858 225.923 245.096C226.037 245.334 226.184 245.544 226.365 245.725C226.558 245.895 226.785 246.031 227.045 246.133C227.306 246.235 227.584 246.286 227.878 246.286ZM235.884 234.59H237.04V244.994C237.04 245.323 237.131 245.583 237.312 245.776C237.493 245.957 237.748 246.048 238.077 246.048C238.202 246.048 238.349 246.031 238.519 245.997C238.689 245.963 238.848 245.918 238.995 245.861L239.199 246.796C238.984 246.887 238.717 246.96 238.4 247.017C238.094 247.074 237.828 247.102 237.601 247.102C237.068 247.102 236.649 246.955 236.343 246.66C236.037 246.354 235.884 245.929 235.884 245.385V234.59Z" fill="#EEEEEE" fill-opacity="0.5"/>
</svg>
